<svg width="14" height="10" viewBox="0 0 14 10" fill="none" xmlns="http://www.w3.org/2000/svg">
<path d="M14.0001 0.00012207H0V10H14.0001V0.00012207Z" fill="#F0F0F0"/>
<path d="M7.87507 0H6.12505V4.0624H0V5.93736H6.12505V9.99975H7.87507V5.93736H14.0001V4.0624H7.87507V0Z" fill="#D80027"/>
<path d="M10.7676 6.73889L14 8.66295V6.73889H10.7676Z" fill="#0052B4"/>
<path d="M8.52148 6.73901L13.9998 9.9998V9.07773L10.0707 6.73901H8.52148Z" fill="#0052B4"/>
<path d="M12.5406 9.99975L8.52148 7.6073V9.99975H12.5406Z" fill="#0052B4"/>
<path d="M8.52148 6.73901L13.9998 9.9998V9.07773L10.0707 6.73901H8.52148Z" fill="#F0F0F0"/>
<path d="M8.52148 6.73901L13.9998 9.9998V9.07773L10.0707 6.73901H8.52148Z" fill="#D80027"/>
<path d="M2.47028 6.73889L0 8.20927V6.73889H2.47028Z" fill="#0052B4"/>
<path d="M5.47855 7.15356V9.99973H0.697266L5.47855 7.15356Z" fill="#0052B4"/>
<path d="M3.92914 6.73901L0 9.07773V9.9998L5.47831 6.73901H3.92914Z" fill="#D80027"/>
<path d="M3.23247 3.26085L0 1.33679V3.26085H3.23247Z" fill="#0052B4"/>
<path d="M5.47831 3.26152L0 0.000732422V0.922803L3.92914 3.26152H5.47831Z" fill="#0052B4"/>
<path d="M1.45947 0L5.47855 2.39245V0H1.45947Z" fill="#0052B4"/>
<path d="M5.47831 3.26079L0 0V0.92207L3.92914 3.26079H5.47831Z" fill="#F0F0F0"/>
<path d="M5.47831 3.26079L0 0V0.92207L3.92914 3.26079H5.47831Z" fill="#D80027"/>
<path d="M11.5298 3.26078L14.0001 1.79041V3.26078H11.5298Z" fill="#0052B4"/>
<path d="M8.52148 2.84616V0H13.3028L8.52148 2.84616Z" fill="#0052B4"/>
<path d="M10.0707 3.26079L13.9998 0.92207V0L8.52148 3.26079H10.0707Z" fill="#D80027"/>
</svg>
