<svg width="14" height="14" viewBox="0 0 14 14" fill="none" xmlns="http://www.w3.org/2000/svg">
<g clip-path="url(#clip0_124_21577)">
<path d="M0 10.5C0 10.9126 0.163888 11.3082 0.455612 11.6C0.747335 11.8917 1.143 12.0556 1.55556 12.0556H12.4444C12.857 12.0556 13.2527 11.8917 13.5444 11.6C13.8361 11.3082 14 10.9126 14 10.5V8.94446H0V10.5Z" fill="#DA0001"/>
<path d="M0 5.05554H14V8.94443H0V5.05554Z" fill="#EEEEEE"/>
<path d="M14 5.05557V3.50001C14 3.08745 13.8361 2.69179 13.5444 2.40007C13.2527 2.10835 12.857 1.94446 12.4444 1.94446H1.55556C1.143 1.94446 0.747335 2.10835 0.455612 2.40007C0.163888 2.69179 0 3.08745 0 3.50001L0 5.05557H14Z" fill="#239F40"/>
<path d="M0 8.94446H14V9.33335H0V8.94446Z" fill="#E96667"/>
<path d="M7.56961 5.82126C7.94178 6.01181 8.75106 6.96965 7.87995 8.04998C8.42089 7.9302 9.10961 6.33576 7.56961 5.82126ZM6.42745 5.82126C4.88784 6.33576 5.57617 7.9302 6.11711 8.04998C5.246 6.96965 6.05528 6.01181 6.42745 5.82126ZM6.9925 5.76565C7.00806 5.84226 7.42067 5.9352 7.37128 5.54281C7.30595 5.70148 7.11695 5.69681 6.99484 5.62331C6.82684 5.71703 6.67011 5.69409 6.61061 5.53503C6.55306 5.82826 6.83889 5.9142 6.9925 5.76565Z" fill="#BE1931"/>
<path d="M7.98678 6.9627C7.98094 6.47737 7.7235 6.04804 7.46994 5.8742C7.63716 6.07915 8.15127 7.21042 7.16466 7.95515L7.18294 5.97298L6.99822 5.81042L6.8135 5.9652L6.84461 7.96643L6.83761 7.96059C5.84089 7.21626 6.35811 6.07954 6.52572 5.8742C6.27216 6.04804 6.01433 6.47737 6.00889 6.9627C6.00383 7.3792 6.19439 7.83498 6.72211 8.20909C6.50902 8.26399 6.28958 8.29028 6.06955 8.28726C6.25 8.38565 6.59066 8.36193 6.85005 8.3382L6.85044 8.36465L7.00522 8.53459L7.16078 8.35765V8.33742C7.42211 8.36154 7.77016 8.38759 7.95372 8.28765C7.72645 8.29141 7.49976 8.26353 7.28016 8.20481C7.80283 7.83109 7.99183 7.37765 7.98678 6.9627Z" fill="#BE1931"/>
<path d="M0 4.66663H14V5.05551H0V4.66663Z" fill="#7BC58C"/>
</g>
<defs>
<clipPath id="clip0_124_21577">
<rect width="14" height="14" fill="white"/>
</clipPath>
</defs>
</svg>
