<svg width="42" height="28" viewBox="0 0 42 28" fill="none" xmlns="http://www.w3.org/2000/svg">
<rect width="42" height="28" rx="8" fill="#1B1A1A" fill-opacity="0.48"/>
<path d="M28.7031 9.19951L26.0781 10.7109V7.59375C26.0781 6.86982 25.4896 6.28125 24.7656 6.28125H12.625C11.9011 6.28125 11.3125 6.86982 11.3125 7.59375V19.4062C11.3125 20.1302 11.9011 20.7188 12.625 20.7188H24.7656C25.4896 20.7188 26.0781 20.1302 26.0781 19.4062V16.2891L28.7031 17.8005C29.1399 18.0527 29.6875 17.7369 29.6875 17.2345V9.76758C29.6875 9.26309 29.1399 8.94727 28.7031 9.19951ZM24.6016 19.2422H12.7891V7.75781H24.6016V19.2422ZM28.2109 15.8174L26.0781 14.591V12.411L28.2109 11.1826V15.8174ZM14.2656 10.3828H16.5625C16.6527 10.3828 16.7266 10.309 16.7266 10.2188V9.23438C16.7266 9.14414 16.6527 9.07031 16.5625 9.07031H14.2656C14.1754 9.07031 14.1016 9.14414 14.1016 9.23438V10.2188C14.1016 10.309 14.1754 10.3828 14.2656 10.3828Z" fill="white"/>
</svg>
