<svg width="120" height="120" viewBox="0 0 120 120" fill="none" xmlns="http://www.w3.org/2000/svg">
<path fill-rule="evenodd" clip-rule="evenodd" d="M60 120C27 120 0 93.0006 0 59.7012C0.3 26.7019 27 -0.297518 60.3 0.00247602C93.3 0.30247 120 27.0019 120 60.6012C119.7 93.3006 93 120 60 120Z" fill="#E42D04"/>
<path fill-rule="evenodd" clip-rule="evenodd" d="M61.1688 104C65.5238 104 76.6951 102.037 86.541 94.1837C97.8627 85.1534 98.9294 80.1173 99.6175 76.8699C99.6774 76.5875 99.7342 76.3183 99.7951 76.0612C99.9099 75.5746 99.9769 74.9138 100 74.1285C97.6218 73.7434 94.2886 73.5229 90.3987 73.9847C84.0367 74.7398 79.038 79.0816 77.3339 81.1582C76.3872 76.4388 71.7672 67 60.861 67C49.9547 67 44.0724 76.4388 42.4946 81.1582C41.4847 79.3961 37.7231 75.4949 30.7552 73.9847C26.4469 73.051 22.6888 73.5124 20 74.2981C20.2123 77.8074 21.3658 81.5504 24.4359 85.5C29.7186 92.2959 37.9153 96.4924 41.5723 98.3647C41.9787 98.5727 42.329 98.752 42.613 98.9031C45.4531 100.413 53.2163 104 61.1688 104Z" fill="white"/>
<path fill-rule="evenodd" clip-rule="evenodd" d="M99.9909 73.9905C97.6142 73.6065 94.2829 73.3866 90.3952 73.8471C84.037 74.6 79.0412 78.9294 77.3381 81C76.3919 76.2941 71.7746 66.8824 60.8747 66.8824C49.9747 66.8824 44.0959 76.2941 42.5189 81C41.5096 79.243 37.7502 75.3529 30.7864 73.8471C26.4806 72.916 22.7247 73.3761 20.0374 74.1599C19.844 70.9686 20.4327 67.9715 21.0645 65.1882C22.1242 60.52 24.7861 54.3333 25.9846 51.8235C24.9123 49.251 22.427 41.96 21.0645 33.3765C19.702 24.7929 22.0107 19.0078 23.3353 17.1882C25.48 17.7529 30.6019 19.5224 33.9325 22.0824C37.263 24.6424 42.3849 30.3019 44.5296 32.8118C47.305 32.0588 54.4455 30.5529 60.8039 30.5529C67.1622 30.5529 73.2934 32.0588 75.5642 32.8118C77.4565 30.5529 82.1117 25.2447 85.5936 22.0824C89.0755 18.92 94.7397 17.3765 97.1369 17C97.7674 17.8157 99.1049 20.2 99.4077 23.2118C99.7862 26.9765 98.6508 34.8824 97.1369 40.1529C95.9258 44.3694 94.3612 49.3137 93.7307 51.2588C94.0459 51.949 95.131 54.1953 96.9477 57.6588C98.8741 61.3317 100.119 69.6099 99.9909 73.9905Z" fill="#FFAA35"/>
<path d="M68.9375 90.742C68.4875 91.3441 68 92.4983 67.8125 93V92.8118L67.25 88.2958C66.1876 88.4211 63.425 88.6722 60.875 88.6722C58.325 88.6722 55.3125 88.4211 54.125 88.2958L53.9375 92.8118C53.8125 92.6237 53.4875 92.0968 53.1875 91.4947C52.8125 90.742 51.5 89.613 51.5 89.0485C51.5 88.5969 50.875 87.606 50.5625 87.1668L50 86.4142H53.375L54.125 86.9787C54.75 86.9158 56.3375 86.8658 57.6875 87.1668C59.0375 87.4679 59.8749 86.2888 60.125 85.6615V82.6508C59.5625 82.2745 58.175 81.4089 57.125 80.9573C55.8125 80.3928 54.5 78.1348 54.875 75.8768C55.25 73.6188 56.375 72.8662 57.125 73.0543C57.875 73.2425 62.75 72.8662 63.5 73.0543C64.25 73.2425 65.5625 73.6188 66.125 74.5597C66.6875 75.5005 66.3125 79.2638 65.1875 80.581C64.2875 81.6347 62.5625 82.3998 61.8125 82.6508V85.6615C61.8125 86.0378 63.125 86.9787 63.3125 87.1668C63.5 87.355 66.3125 87.1668 66.875 87.1668C67.325 87.1668 67.6876 86.7905 67.8125 86.6023H71V87.355C71 87.7313 70.4375 89.4248 70.25 89.613C70.0625 89.8012 69.5 89.9893 68.9375 90.742Z" fill="black"/>
<path d="M62.9048 89.5L61 91L59.4762 89.5L58.1429 90.1667L57 89H65L63.8571 90.3333L62.9048 89.5Z" fill="black"/>
<path d="M42.4054 58.7308C40.1738 57.8077 37.7563 57.1923 36.8265 57C36.5785 57.1281 36.0826 57.5385 36.0826 58.1538C36.0826 58.9231 35.8967 59.6923 36.0826 61.2308C36.2686 62.7692 37.7563 63.7308 40.3598 64.8846C42.9632 66.0385 47.4263 67 50.5877 67C53.7491 67 50.7737 63.7308 49.6579 62.9615C48.5421 62.1923 45.1948 59.8846 42.4054 58.7308Z" fill="black"/>
<path d="M45.4593 53.6272C43.7917 53.9254 41.4797 54 40.5321 54C39.5846 53.8759 37.5758 53.2917 37.121 51.9497C36.5525 50.2722 38.0686 48.4083 39.9636 47.4763C41.8587 46.5444 44.3223 46.9172 45.8383 49.1538C47.3544 51.3905 47.5439 53.2544 45.4593 53.6272Z" fill="white"/>
<path d="M79.5946 57.7308C81.8262 56.8077 84.2437 56.1923 85.1735 56C85.4216 56.1281 85.9173 56.5385 85.9173 57.1538C85.9173 57.9231 86.1033 58.6923 85.9173 60.2308C85.7314 61.7692 84.2437 62.7308 81.6402 63.8846C79.0368 65.0385 74.5737 66 71.4123 66C68.2509 66 71.2263 62.7308 72.3421 61.9615C73.4579 61.1923 76.8052 58.8846 79.5946 57.7308Z" fill="black"/>
<path d="M73.5407 53.6272C75.2083 53.9254 77.5203 54 78.4679 54C79.4154 53.8757 81.4242 53.2917 81.879 51.9497C82.4475 50.2722 80.9314 48.4083 79.0364 47.4763C77.1413 46.5444 74.6777 46.9172 73.1617 49.1538C71.6456 51.3905 71.4561 53.2544 73.5407 53.6272Z" fill="white"/>
<path d="M32.4293 39.6744C31.0665 41.1628 28.4546 44.5116 27.319 46C26.5619 44.3876 24.8964 40.0837 24.2907 35.7674C23.6851 31.4512 24.1645 24.7907 24.48 22C25.3002 22.062 27.6975 22.7442 30.7258 24.9767C33.7541 27.2093 38.1704 31.3644 40 33.1628C38.0442 34.7132 33.792 38.186 32.4293 39.6744Z" fill="#FF8C30"/>
<path fill-rule="evenodd" clip-rule="evenodd" d="M24 25.5439C26.9765 26.786 30.8944 28.6847 32.5363 30.4007C34.2019 32.1415 35.6672 34.4459 36.5371 36C37.843 34.9172 39.1407 33.877 40 33.201C38.15 31.3964 33.6846 27.2271 30.6226 24.9869C27.5606 22.7467 25.1365 22.0622 24.3072 22C24.2082 22.8693 24.0932 24.1128 24 25.5439Z" fill="#FF9A32"/>
<path d="M86.5708 39.6744C87.9335 41.1628 90.5454 44.5116 91.681 46C92.4381 44.3876 94.1037 40.0837 94.7093 35.7674C95.315 31.4512 94.8354 24.7907 94.52 22C93.6998 22.062 91.3025 22.7442 88.2742 24.9767C85.2459 27.2093 80.8295 31.3644 79 33.1628C80.9559 34.7132 85.208 38.186 86.5708 39.6744Z" fill="#FF8C30"/>
<path fill-rule="evenodd" clip-rule="evenodd" d="M95 25.5439C92.0234 26.786 88.1056 28.6847 86.4636 30.4007C84.7979 32.1415 83.3327 34.4459 82.4631 36C81.1572 34.9172 79.8593 33.877 79 33.201C80.8498 31.3964 85.3153 27.2271 88.3773 24.9869C91.4393 22.7467 93.8632 22.0622 94.6927 22C94.7918 22.8693 94.9066 24.1128 95 25.5439Z" fill="#FF9A32"/>
</svg>
