<svg width="126" height="30" viewBox="0 0 126 30" fill="none" xmlns="http://www.w3.org/2000/svg">
<path d="M32.5825 16.69C32.5825 17.09 32.7225 17.43 33.0025 17.71C33.2825 17.97 33.6225 18.1 34.0225 18.1H35.2825C35.5625 18.1 35.7025 18.24 35.7025 18.52V21.58C35.7025 21.86 35.5625 22 35.2825 22H34.5625C33.8625 22 33.1925 21.86 32.5525 21.58C31.9325 21.3 31.3825 20.85 30.9025 20.23C30.4225 20.85 29.8325 21.31 29.1325 21.61C28.4525 21.89 27.7525 22.03 27.0325 22.03C26.3925 22.03 25.7925 21.89 25.2325 21.61C24.6725 21.31 24.1925 20.85 23.7925 20.23C23.3325 20.87 22.8225 21.33 22.2625 21.61C21.7025 21.87 21.0825 22 20.4025 22C20.0625 22 19.6925 21.95 19.2925 21.85C18.9125 21.73 18.5825 21.47 18.3025 21.07V21.85C18.3025 22.61 18.1425 23.31 17.8225 23.95C17.5025 24.61 17.0625 25.18 16.5025 25.66C15.9425 26.16 15.2925 26.55 14.5525 26.83C13.8325 27.11 13.0825 27.25 12.3025 27.25H7.0825C6.1625 27.25 5.2925 27.07 4.4725 26.71C3.6525 26.37 2.9325 25.89 2.3125 25.27C1.7125 24.67 1.2325 23.96 0.8725 23.14C0.5325 22.32 0.3625 21.45 0.3625 20.53V11.77H3.6625V20.05C3.6625 20.51 3.7425 20.94 3.9025 21.34C4.0825 21.74 4.3225 22.09 4.6225 22.39C4.9225 22.69 5.2725 22.92 5.6725 23.08C6.0725 23.26 6.5025 23.35 6.9625 23.35H12.3325C13.0925 23.35 13.7325 23.09 14.2525 22.57C14.7725 22.05 15.0325 21.41 15.0325 20.65V11.26H18.3325V16.72C18.3325 17.1 18.4725 17.43 18.7525 17.71C19.0525 17.97 19.3925 18.1 19.7725 18.1H20.6425C21.0425 18.1 21.3925 17.98 21.6925 17.74C21.9925 17.5 22.1825 17.18 22.2625 16.78L23.3425 11.35L26.5825 11.95L25.6825 16.48C25.5825 16.92 25.6725 17.31 25.9525 17.65C26.2525 17.97 26.6125 18.13 27.0325 18.13H27.8425C28.2425 18.13 28.5825 18 28.8625 17.74C29.1425 17.46 29.2825 17.12 29.2825 16.72V10.45H32.5825V16.69ZM58.2815 16.66C58.2815 17.06 58.4215 17.4 58.7015 17.68C58.9815 17.96 59.3215 18.1 59.7215 18.1H61.5815C61.7015 18.1 61.8015 18.15 61.8815 18.25C61.9615 18.33 62.0015 18.42 62.0015 18.52V21.55C62.0015 21.67 61.9615 21.78 61.8815 21.88C61.8015 21.96 61.7015 22 61.5815 22H60.2915C59.5915 22 58.9415 21.88 58.3415 21.64C57.7415 21.38 57.2115 21.03 56.7515 20.59C56.2915 21.03 55.7515 21.38 55.1315 21.64C54.5315 21.88 53.9015 22 53.2415 22H35.2715C35.1515 22 35.0515 21.96 34.9715 21.88C34.8915 21.78 34.8515 21.68 34.8515 21.58V18.52C34.8515 18.4 34.8915 18.3 34.9715 18.22C35.0515 18.12 35.1515 18.08 35.2715 18.1H53.8115C54.1115 18.1 54.3815 17.99 54.6215 17.77C54.8615 17.55 54.9815 17.27 54.9815 16.93V14.8C54.9815 14.44 54.8515 14.14 54.5915 13.9C54.3315 13.64 54.0215 13.51 53.6615 13.51H38.8715L36.5015 11.23L45.3215 0.91L47.6915 3.13L41.9315 9.91H53.3615C54.0415 9.91 54.6715 10.04 55.2515 10.3C55.8515 10.56 56.3715 10.91 56.8115 11.35C57.2715 11.79 57.6315 12.31 57.8915 12.91C58.1515 13.51 58.2815 14.15 58.2815 14.83V16.66ZM68.3901 18.1H72.6201V14.8C72.6201 14.48 72.5101 14.21 72.2901 13.99C72.0701 13.77 71.8001 13.66 71.4801 13.66H69.0501C68.7701 13.66 68.5301 13.75 68.3301 13.93C68.1301 14.09 68.0001 14.31 67.9401 14.59L67.4601 16.99C67.4001 17.27 67.4601 17.53 67.6401 17.77C67.8401 17.99 68.0901 18.1 68.3901 18.1ZM64.1301 16.78L64.7301 13.69C64.8301 13.15 65.0201 12.65 65.3001 12.19C65.6001 11.71 65.9501 11.31 66.3501 10.99C66.7501 10.65 67.2001 10.39 67.7001 10.21C68.2201 10.01 68.7601 9.91 69.3201 9.91H71.0001C71.6801 9.91 72.3201 10.04 72.9201 10.3C73.5201 10.56 74.0401 10.91 74.4801 11.35C74.9201 11.79 75.2701 12.31 75.5301 12.91C75.7901 13.51 75.9201 14.15 75.9201 14.83V18.34C75.9201 18.84 75.8201 19.32 75.6201 19.78C75.4401 20.22 75.1801 20.61 74.8401 20.95C74.5201 21.27 74.1401 21.53 73.7001 21.73C73.2601 21.91 72.7901 22 72.2901 22H68.8101C68.2101 22 67.6401 21.88 67.1001 21.64C66.5601 21.38 66.0701 20.93 65.6301 20.29C65.1701 20.93 64.6601 21.38 64.1001 21.64C63.5401 21.88 62.9401 22 62.3001 22H61.5801C61.3001 22 61.1601 21.86 61.1601 21.58V18.52C61.1601 18.24 61.3001 18.1 61.5801 18.1H62.5401C62.9401 18.1 63.2801 17.98 63.5601 17.74C63.8601 17.5 64.0501 17.18 64.1301 16.78Z" fill="#005CB3"/>
<path d="M86.4297 10.42H89.8797V6.97H86.4297V10.42ZM91.4397 10.42H94.8897V6.97H91.4397V10.42ZM82.5297 10.42V15.64C82.5297 16.34 82.7697 16.93 83.2497 17.41C83.7297 17.87 84.3197 18.1 85.0197 18.1H97.3197C97.7197 18.1 98.0597 17.97 98.3397 17.71C98.6197 17.43 98.7597 17.09 98.7597 16.69V11.29H102.06V16.66C102.06 17.06 102.2 17.4 102.48 17.68C102.76 17.96 103.1 18.1 103.5 18.1H104.4C104.68 18.1 104.82 18.24 104.82 18.52V21.58C104.82 21.86 104.68 22 104.4 22H104.07C103.35 22 102.68 21.85 102.06 21.55C101.44 21.23 100.9 20.79 100.44 20.23C99.9397 20.85 99.3697 21.3 98.7297 21.58C98.1097 21.86 97.4397 22 96.7197 22H85.3197C84.4797 22 83.6897 21.84 82.9497 21.52C82.2097 21.2 81.5597 20.77 80.9997 20.23C80.4597 19.67 80.0297 19.02 79.7097 18.28C79.3897 17.54 79.2297 16.75 79.2297 15.91V10.42H82.5297ZM105.822 29.05H109.242V25.6H105.822V29.05ZM110.802 29.05H114.252V25.6H110.802V29.05ZM116.082 21.58C116.082 21.68 116.042 21.78 115.962 21.88C115.882 21.96 115.782 22 115.662 22H113.382C112.742 22 112.102 21.83 111.462 21.49C110.822 21.13 110.392 20.71 110.172 20.23C110.032 20.47 109.832 20.7 109.572 20.92C109.312 21.12 109.022 21.31 108.702 21.49C108.402 21.65 108.072 21.78 107.712 21.88C107.372 21.96 107.032 22 106.692 22H104.412C104.132 22 103.992 21.86 103.992 21.58V18.55C103.992 18.43 104.032 18.33 104.112 18.25C104.192 18.15 104.292 18.1 104.412 18.1H106.992C107.392 18.1 107.742 17.98 108.042 17.74C108.342 17.5 108.532 17.18 108.612 16.78L109.722 11.38L112.962 11.95L112.062 16.48C111.962 16.9 112.052 17.28 112.332 17.62C112.612 17.94 112.972 18.1 113.412 18.1H115.662C115.782 18.1 115.882 18.15 115.962 18.25C116.042 18.33 116.082 18.43 116.082 18.55V21.58ZM116.442 25.6H119.892V29.05H116.442V25.6ZM120.762 18.1C121.162 18.1 121.502 17.96 121.782 17.68C122.062 17.38 122.202 17.03 122.202 16.63V10.42H125.502V16.63C125.502 17.37 125.362 18.07 125.082 18.73C124.802 19.37 124.412 19.94 123.912 20.44C123.432 20.92 122.862 21.3 122.202 21.58C121.562 21.86 120.872 22 120.132 22H115.662C115.542 22 115.442 21.96 115.362 21.88C115.282 21.78 115.242 21.68 115.242 21.58V18.55C115.242 18.43 115.282 18.33 115.362 18.25C115.442 18.15 115.542 18.1 115.662 18.1H120.762Z" fill="#FCB500"/>
</svg>
