<svg width="154" height="36" viewBox="0 0 154 36" fill="none" xmlns="http://www.w3.org/2000/svg">
<path d="M136.19 28.14H132.15L125.58 17.14L119.11 28.14H115.07L125.59 10.23L136.19 28.14ZM66.6001 28.14H70.6401V10.22H66.6001V28.14ZM73.5701 10.22V14.42H80.6001V28.16H84.6401V14.41H91.6701V10.21H73.5701V10.22ZM63.6601 22.65C63.6601 25.68 61.2101 28.14 58.1801 28.14H45.8901V10.22H56.0101C59.0501 10.22 61.5201 12.69 61.5201 15.74C61.5201 16.54 61.3501 17.3 61.0401 17.99C62.6101 18.95 63.6601 20.68 63.6601 22.65ZM49.9501 14.29V17.19L56.0101 17.18C56.8101 17.18 57.4601 16.53 57.4601 15.73C57.4601 15.33 57.3001 14.97 57.0401 14.7C56.7801 14.44 56.4201 14.28 56.0201 14.28H49.9501V14.29ZM59.6001 22.67C59.6001 22.28 59.4401 21.93 59.1901 21.68C58.9401 21.43 58.5901 21.27 58.2001 21.27H49.9601V24.07H58.2001C58.9701 24.07 59.6001 23.44 59.6001 22.67ZM149.43 21.28L147.41 24.73L149.46 28.15L153.5 28.14L149.43 21.28ZM149.48 10.23L146.23 15.77L142.93 10.24L138.79 10.23L144.16 19.25L138.97 28.15H143L153.5 10.24H149.48V10.23ZM112.34 14.33L108.3 21.19V28.14H112.34V14.33ZM108.35 10.22L103.46 18.53L98.5001 10.22H94.5901V28.14H98.6301V17.14L103.47 25.45L112.35 10.23H108.35V10.22Z" fill="white"/>
<path d="M125.55 21.42L129.44 28.08L125.55 26.88L121.66 28.08L125.55 21.42Z" fill="#29ABE2"/>
<path d="M29.6999 27.65H29.6899C29.6899 27.64 29.6999 27.64 29.6999 27.65Z" fill="url(#paint0_linear_821_4695)"/>
<path d="M20.7 14.42L13.74 26.8L0.5 35.79L20.79 0L20.7 14.42Z" fill="url(#paint1_linear_821_4695)"/>
<path d="M40.7002 36L13.7402 26.8L20.7002 24.64L27.6002 26.89C27.5902 26.88 40.7002 36 40.7002 36Z" fill="url(#paint2_linear_821_4695)"/>
<path d="M40.71 36L27.61 26.89L20.71 14.42L20.79 0L40.71 36Z" fill="url(#paint3_linear_821_4695)"/>
<path d="M20.7 29.17L0.5 35.79L13.74 26.79L20.7 29.17Z" fill="url(#paint4_linear_821_4695)"/>
<defs>
<linearGradient id="paint0_linear_821_4695" x1="29.6231" y1="27.6175" x2="29.6148" y2="27.6142" gradientUnits="userSpaceOnUse">
<stop stop-color="#47C0F0"/>
<stop offset="0.5" stop-color="#00A0E3"/>
<stop offset="1" stop-color="#008BD2"/>
</linearGradient>
<linearGradient id="paint1_linear_821_4695" x1="24.0315" y1="1.89385" x2="3.18403" y2="37.3526" gradientUnits="userSpaceOnUse">
<stop stop-color="#47C0F0"/>
<stop offset="0.5" stop-color="#00A0E3"/>
<stop offset="1" stop-color="#008BD2"/>
</linearGradient>
<linearGradient id="paint2_linear_821_4695" x1="19.6331" y1="26.4619" x2="35.6102" y2="32.1186" gradientUnits="userSpaceOnUse">
<stop offset="0.0903" stop-color="#00A0E3"/>
<stop offset="0.1193" stop-color="#03A1E4"/>
<stop offset="0.4831" stop-color="#28B2EA"/>
<stop offset="0.7776" stop-color="#3FBCEE"/>
<stop offset="0.9641" stop-color="#47C0F0"/>
</linearGradient>
<linearGradient id="paint3_linear_821_4695" x1="32.5333" y1="26.2235" x2="25.0457" y2="14.725" gradientUnits="userSpaceOnUse">
<stop stop-color="#008BD2"/>
<stop offset="0.084" stop-color="#0092D8"/>
<stop offset="0.2746" stop-color="#009DE0"/>
<stop offset="0.5" stop-color="#00A0E3"/>
<stop offset="1" stop-color="#47C0F0"/>
</linearGradient>
<linearGradient id="paint4_linear_821_4695" x1="13.9518" y1="35.848" x2="7.26551" y2="29.0911" gradientUnits="userSpaceOnUse">
<stop offset="0.0903" stop-color="#00A0E3"/>
<stop offset="0.1193" stop-color="#03A1E4"/>
<stop offset="0.4831" stop-color="#28B2EA"/>
<stop offset="0.7776" stop-color="#3FBCEE"/>
<stop offset="0.9641" stop-color="#47C0F0"/>
</linearGradient>
</defs>
</svg>
