<svg width="24" height="24" viewBox="0 0 24 24" fill="none" xmlns="http://www.w3.org/2000/svg">
<path d="M12.0011 1.59416C2.7311 1.59116 -1.9119 12.7972 4.6411 19.3522C6.09587 20.8073 7.9495 21.7984 9.96756 22.2C11.9856 22.6016 14.0774 22.3958 15.9785 21.6085C17.8796 20.8212 19.5044 19.4878 20.6477 17.777C21.7909 16.0662 22.4011 14.0548 22.4011 11.9972C22.4011 6.25316 17.7461 1.59616 12.0011 1.59416ZM6.1101 6.78316C6.6111 4.18516 10.0031 3.48916 11.4861 5.68016C12.9691 7.87016 11.0641 10.7622 8.4661 10.2622C8.08291 10.1885 7.71797 10.0402 7.39215 9.82545C7.06633 9.61074 6.78602 9.33393 6.56722 9.01085C6.34842 8.68776 6.19544 8.32472 6.117 7.94249C6.03857 7.56025 6.03622 7.1663 6.1101 6.78316ZM10.4321 15.7712C9.9281 18.3682 6.5351 19.0592 5.0551 16.8672C3.5751 14.6752 5.4821 11.7872 8.0801 12.2882C8.46334 12.3622 8.82823 12.5111 9.1539 12.7262C9.47957 12.9414 9.75963 13.2186 9.97807 13.5421C10.1965 13.8656 10.349 14.229 10.427 14.6115C10.5049 14.9939 10.5066 15.388 10.4321 15.7712ZM11.6921 13.3662C10.5401 13.1432 10.2301 11.6392 11.2011 10.9792C12.1711 10.3192 13.4571 11.1592 13.2411 12.3132C13.2091 12.4842 13.1435 12.6472 13.0483 12.7928C12.953 12.9384 12.8299 13.0637 12.6861 13.1616C12.5422 13.2594 12.3804 13.3279 12.21 13.363C12.0396 13.3981 11.8639 13.3992 11.6931 13.3662H11.6921ZM17.8901 17.2042C17.3891 19.8022 13.9971 20.4972 12.5141 18.3072C11.0301 16.1162 12.9351 13.2252 15.5341 13.7242C15.9174 13.7978 16.2824 13.9462 16.6083 14.161C16.9342 14.3757 17.2146 14.6526 17.4334 14.9758C17.6522 15.299 17.8052 15.6622 17.8835 16.0445C17.9619 16.4269 17.9641 16.8209 17.8901 17.2042ZM15.9231 11.7022C13.3251 11.2012 12.6301 7.80616 14.8211 6.32216C17.0111 4.83916 19.9021 6.74416 19.4031 9.34216C19.33 9.72582 19.1819 10.0913 18.9673 10.4176C18.7527 10.744 18.4759 11.0248 18.1526 11.244C17.8294 11.4632 17.4661 11.6165 17.0835 11.6951C16.7009 11.7737 16.3066 11.7761 15.9231 11.7022ZM13.5901 23.2642L15.8541 23.8742C16.8061 24.1268 17.8194 23.991 18.6713 23.4967C19.5232 23.0024 20.144 22.19 20.3971 21.2382L21.0371 18.8362C19.2353 21.2363 16.5584 22.8277 13.5891 23.2642H13.5901ZM21.2331 3.59916L18.8701 2.97016C20.0643 3.88871 21.0641 5.0353 21.8115 6.34339C22.5589 7.65148 23.0391 9.095 23.2241 10.5902L23.8741 8.13116C24.1228 7.17989 23.9843 6.16881 23.4889 5.3195C22.9935 4.47018 22.1816 3.8519 21.2311 3.60016L21.2331 3.59916ZM0.672102 13.8092L0.131102 15.8492C-0.1215 16.8011 0.0142757 17.8145 0.50858 18.6664C1.00288 19.5183 1.81526 20.139 2.7671 20.3922L4.8741 20.9542C2.62464 19.1856 1.12399 16.6345 0.671102 13.8092H0.672102ZM10.3571 0.702161L8.1501 0.126161C7.67839 0.000504613 7.18654 -0.0309518 6.70266 0.0335897C6.21879 0.0981311 5.75238 0.257405 5.33009 0.502306C4.9078 0.747207 4.53793 1.07293 4.2416 1.46087C3.94527 1.8488 3.7283 2.29133 3.6031 2.76316L3.0521 4.84516C4.86982 2.5828 7.48346 1.10069 10.3581 0.702161H10.3571Z" fill="#EBF4FF"/>
</svg>
