<svg width="24" height="20" viewBox="0 0 24 20" fill="none" xmlns="http://www.w3.org/2000/svg">
<path d="M23.643 2.93659C22.808 3.30659 21.911 3.55659 20.968 3.66959C21.941 3.08738 22.669 2.17105 23.016 1.09159C22.1019 1.63458 21.1014 2.01678 20.058 2.22159C19.3564 1.47245 18.4271 0.975915 17.4143 0.809063C16.4016 0.642211 15.3621 0.81438 14.4572 1.29884C13.5524 1.7833 12.8328 2.55295 12.4102 3.48829C11.9875 4.42363 11.8855 5.47234 12.12 6.47159C10.2677 6.37858 8.45564 5.89714 6.80144 5.05849C5.14723 4.21985 3.68785 3.04275 2.51801 1.60359C2.11801 2.29359 1.88801 3.09359 1.88801 3.94559C1.88757 4.71258 2.07644 5.46783 2.43789 6.14432C2.79934 6.82081 3.32217 7.39763 3.96001 7.82359C3.22029 7.80005 2.49688 7.60017 1.85001 7.24059V7.30059C1.84994 8.37633 2.22204 9.41897 2.90319 10.2516C3.58434 11.0842 4.53258 11.6555 5.58701 11.8686C4.9008 12.0543 4.18135 12.0817 3.48301 11.9486C3.78051 12.8742 4.36001 13.6836 5.14038 14.2635C5.92075 14.8434 6.86293 15.1648 7.83501 15.1826C6.18484 16.478 4.1469 17.1807 2.04901 17.1776C1.67739 17.1777 1.30609 17.156 0.937012 17.1126C3.06649 18.4818 5.54535 19.2084 8.07701 19.2056C16.647 19.2056 21.332 12.1076 21.332 5.95159C21.332 5.75159 21.327 5.54959 21.318 5.34959C22.2293 4.69056 23.0159 3.87448 23.641 2.93959L23.643 2.93659Z" fill="#192434"/>
</svg>
