<svg width="24" height="20" viewBox="0 0 24 20" fill="none" xmlns="http://www.w3.org/2000/svg">
<path d="M23.6425 2.93659C22.8075 3.30659 21.9105 3.55659 20.9675 3.66959C21.9405 3.08738 22.6685 2.17105 23.0155 1.09159C22.1014 1.63458 21.1009 2.01678 20.0575 2.22159C19.3559 1.47245 18.4266 0.975915 17.4138 0.809063C16.4011 0.642211 15.3616 0.81438 14.4568 1.29884C13.5519 1.7833 12.8323 2.55295 12.4097 3.48829C11.9871 4.42363 11.8851 5.47234 12.1195 6.47159C10.2672 6.37858 8.45515 5.89714 6.80095 5.05849C5.14674 4.21985 3.68736 3.04275 2.51752 1.60359C2.11752 2.29359 1.88752 3.09359 1.88752 3.94559C1.88708 4.71258 2.07596 5.46783 2.4374 6.14432C2.79885 6.82081 3.32168 7.39763 3.95952 7.82359C3.2198 7.80005 2.4964 7.60017 1.84952 7.24059V7.30059C1.84945 8.37633 2.22156 9.41897 2.90271 10.2516C3.58386 11.0842 4.53209 11.6555 5.58652 11.8686C4.90031 12.0543 4.18086 12.0817 3.48252 11.9486C3.78002 12.8742 4.35952 13.6836 5.13989 14.2635C5.92026 14.8434 6.86244 15.1648 7.83452 15.1826C6.18436 16.478 4.14641 17.1807 2.04852 17.1776C1.6769 17.1777 1.3056 17.156 0.936523 17.1126C3.066 18.4818 5.54486 19.2084 8.07652 19.2056C16.6465 19.2056 21.3315 12.1076 21.3315 5.95159C21.3315 5.75159 21.3265 5.54959 21.3175 5.34959C22.2288 4.69056 23.0154 3.87448 23.6405 2.93959L23.6425 2.93659Z" fill="#EBF4FF"/>
</svg>
