<svg width="80" height="59" viewBox="0 0 80 59" fill="none" xmlns="http://www.w3.org/2000/svg">
<path d="M72.7458 20.9492C68.9492 18.8814 63.8983 17.4237 58.3051 16.7119V14.2373C58.3051 10.1356 55.0508 6.40678 49.1525 3.76271C43.7966 1.32203 36.678 0 29.1525 0C21.6271 0 14.5085 1.32203 9.15254 3.76271C3.25424 6.40678 0 10.1356 0 14.2373V27.7966C0 31.8983 3.25424 35.6271 9.15254 38.2712C13.1478 39.9876 17.3738 41.1069 21.6949 41.5932V44.0678C21.6949 48.1695 24.9492 51.8983 30.8475 54.5424C36.2034 56.9831 43.322 58.3051 50.8475 58.3051C58.3729 58.3051 65.4915 56.9831 70.8475 54.5424C76.7458 51.8983 80 48.1695 80 44.0678V30.5085C80 26.8814 77.4237 23.4915 72.7458 20.9492ZM70.7797 24.5085C74.1017 26.339 75.9322 28.4407 75.9322 30.5085C75.9322 35.322 65.6271 40.678 50.8475 40.678C48.4455 40.6705 46.0459 40.5233 43.661 40.2373C45.5433 39.7367 47.3803 39.079 49.1525 38.2712C55.0508 35.6271 58.3051 31.8983 58.3051 27.7966V20.8136C63.1864 21.4915 67.5593 22.7797 70.7797 24.5085ZM23.9661 37.7288H23.8644C22.6441 37.6271 21.4576 37.4576 20.339 37.2881V27.8305C23.2576 28.2559 26.2031 28.4712 29.1525 28.4746C32.102 28.4712 35.0475 28.2559 37.9661 27.8305V37.2881C35.0512 37.7499 32.1038 37.9766 29.1525 37.9661C27.4208 37.9747 25.6898 37.8955 23.9661 37.7288ZM54.2373 21.661V27.7966C54.2373 31.017 49.5932 34.5085 42.0339 36.4407V27.0508C44.4821 26.5224 46.868 25.7384 49.1525 24.7119C50.9817 23.9375 52.6933 22.9106 54.2373 21.661ZM29.1525 4.0678C43.9322 4.0678 54.2373 9.42373 54.2373 14.2373C54.2373 19.0508 43.9322 24.4068 29.1525 24.4068C14.3729 24.4068 4.0678 19.0508 4.0678 14.2373C4.0678 9.42373 14.3729 4.0678 29.1525 4.0678ZM4.0678 27.7966V21.661C5.61183 22.9106 7.3234 23.9375 9.15254 24.7119C11.4371 25.7384 13.823 26.5224 16.2712 27.0508V36.4407C8.71186 34.5085 4.0678 31.017 4.0678 27.7966ZM25.7627 44.0678V41.9322C26.8814 42 28 42.0339 29.1525 42.0339C30.3051 42.0339 31.7966 42 33.1186 41.8983C34.6951 42.4979 36.3158 42.9739 37.9661 43.322V52.7119C30.4068 50.7797 25.7627 47.2881 25.7627 44.0678ZM42.0339 53.5593V44.1017C44.9527 44.5259 47.898 44.7411 50.8475 44.7458C53.7969 44.7424 56.7424 44.5271 59.661 44.1017V53.5593C53.8201 54.4633 47.8748 54.4633 42.0339 53.5593ZM63.7288 52.7119V43.322C66.177 42.7936 68.5629 42.0096 70.8475 40.9831C72.6766 40.2087 74.3882 39.1818 75.9322 37.9322V44.0678C75.9322 47.2881 71.2881 50.7797 63.7288 52.7119Z" fill="#EBF4FF"/>
</svg>
