<svg width="88" height="73" viewBox="0 0 88 73" fill="none" xmlns="http://www.w3.org/2000/svg">
<path d="M42.838 63C42.6514 63 42.4834 62.9347 42.334 62.804C42.2034 62.6733 42.138 62.5053 42.138 62.3V48.972L38.302 51.912C38.134 52.0427 37.9567 52.0893 37.77 52.052C37.602 52.0147 37.4527 51.912 37.322 51.744L35.67 49.588C35.558 49.42 35.5114 49.2427 35.53 49.056C35.5674 48.8507 35.6794 48.692 35.866 48.58L42.306 43.596C42.418 43.5213 42.5207 43.4747 42.614 43.456C42.726 43.4187 42.8474 43.4 42.978 43.4H46.478C46.6647 43.4 46.8234 43.4653 46.954 43.596C47.1034 43.7267 47.178 43.8947 47.178 44.1V62.3C47.178 62.5053 47.1034 62.6733 46.954 62.804C46.8234 62.9347 46.6647 63 46.478 63H42.838Z" fill="black"/>
<path d="M32.3955 10.3447L39.834 9.26367L43.1592 2.52246C43.25 2.33789 43.3994 2.18847 43.584 2.09765C44.0469 1.86914 44.6094 2.05957 44.8408 2.52246L48.166 9.26367L55.6045 10.3447C55.8096 10.374 55.9971 10.4707 56.1406 10.6172C56.3142 10.7956 56.4098 11.0355 56.4065 11.2844C56.4032 11.5333 56.3013 11.7706 56.1231 11.9443L50.7412 17.1914L52.0127 24.6006C52.0425 24.7729 52.0235 24.9502 51.9577 25.1123C51.8919 25.2743 51.782 25.4147 51.6404 25.5175C51.4989 25.6203 51.3314 25.6814 51.157 25.6938C50.9825 25.7063 50.808 25.6696 50.6533 25.5879L44 22.0898L37.3467 25.5879C37.1651 25.6846 36.9541 25.7168 36.752 25.6816C36.2422 25.5938 35.8994 25.1104 35.9873 24.6006L37.2588 17.1914L31.877 11.9443C31.7305 11.8008 31.6338 11.6133 31.6045 11.4082C31.5254 10.8955 31.8828 10.4209 32.3955 10.3447ZM39.5235 16.4531L38.4658 22.6143L44 19.708L49.5342 22.6172L48.4766 16.4561L52.9531 12.0908L46.7656 11.1914L44 5.58691L41.2344 11.1914L35.0469 12.0908L39.5235 16.4531Z" fill="black"/>
<rect x="29.5" y="29.5" width="28" height="42" stroke="black" stroke-width="3"/>
<rect x="1.5" y="47.5" width="28" height="24" stroke="black" stroke-width="3"/>
<rect x="58.5" y="59.5" width="28" height="12" stroke="black" stroke-width="3"/>
</svg>
